<svg xmlns="http://www.w3.org/2000/svg" viewBox="0 0 400 400" fill="none" stroke="#000" stroke-width="2.5" stroke-linecap="round" stroke-linejoin="round">
  <!-- Beautiful sunflower - professional coloring page -->
  
  <!-- Stem -->
  <path d="M200 230 L200 380"/>
  <path d="M195 230 Q195 300 195 380"/>
  <path d="M205 230 Q205 300 205 380"/>
  
  <!-- Left leaf -->
  <path d="M200 300 Q150 280 120 300 Q100 320 120 340 Q150 350 200 320"/>
  <!-- Leaf vein -->
  <path d="M200 310 Q160 310 130 320"/>
  <path d="M180 305 Q160 315 140 330"/>
  <path d="M175 320 Q155 330 140 340"/>
  
  <!-- Right leaf -->
  <path d="M200 260 Q250 240 280 260 Q300 280 280 300 Q250 310 200 280"/>
  <!-- Leaf vein -->
  <path d="M200 270 Q240 270 270 280"/>
  <path d="M220 265 Q240 275 260 290"/>
  <path d="M225 280 Q245 290 260 300"/>
  
  <!-- Flower petals - outer ring -->
  <ellipse cx="200" cy="100" rx="25" ry="50" transform="rotate(0 200 150)"/>
  <ellipse cx="200" cy="100" rx="25" ry="50" transform="rotate(30 200 150)"/>
  <ellipse cx="200" cy="100" rx="25" ry="50" transform="rotate(60 200 150)"/>
  <ellipse cx="200" cy="100" rx="25" ry="50" transform="rotate(90 200 150)"/>
  <ellipse cx="200" cy="100" rx="25" ry="50" transform="rotate(120 200 150)"/>
  <ellipse cx="200" cy="100" rx="25" ry="50" transform="rotate(150 200 150)"/>
  <ellipse cx="200" cy="100" rx="25" ry="50" transform="rotate(180 200 150)"/>
  <ellipse cx="200" cy="100" rx="25" ry="50" transform="rotate(210 200 150)"/>
  <ellipse cx="200" cy="100" rx="25" ry="50" transform="rotate(240 200 150)"/>
  <ellipse cx="200" cy="100" rx="25" ry="50" transform="rotate(270 200 150)"/>
  <ellipse cx="200" cy="100" rx="25" ry="50" transform="rotate(300 200 150)"/>
  <ellipse cx="200" cy="100" rx="25" ry="50" transform="rotate(330 200 150)"/>
  
  <!-- Center of flower -->
  <circle cx="200" cy="150" r="50"/>
  
  <!-- Center seed pattern -->
  <circle cx="200" cy="150" r="40"/>
  <circle cx="200" cy="150" r="30"/>
  <circle cx="200" cy="150" r="20"/>
  <circle cx="200" cy="150" r="10"/>
  
  <!-- Seed dots -->
  <circle cx="185" cy="135" r="4"/>
  <circle cx="200" cy="130" r="4"/>
  <circle cx="215" cy="135" r="4"/>
  <circle cx="175" cy="150" r="4"/>
  <circle cx="225" cy="150" r="4"/>
  <circle cx="185" cy="165" r="4"/>
  <circle cx="200" cy="170" r="4"/>
  <circle cx="215" cy="165" r="4"/>
  <circle cx="170" cy="140" r="3"/>
  <circle cx="230" cy="140" r="3"/>
  <circle cx="170" cy="160" r="3"/>
  <circle cx="230" cy="160" r="3"/>
  
  <!-- Ground grass -->
  <path d="M150 380 Q155 365 160 380"/>
  <path d="M165 380 Q170 360 175 380"/>
  <path d="M185 380 Q190 368 195 380"/>
  <path d="M205 380 Q210 368 215 380"/>
  <path d="M225 380 Q230 360 235 380"/>
  <path d="M240 380 Q245 365 250 380"/>
  
  <!-- Bee -->
  <ellipse cx="280" cy="100" rx="15" ry="10"/>
  <circle cx="290" cy="100" r="8"/>
  <!-- Bee stripes -->
  <line x1="270" y1="95" x2="270" y2="105"/>
  <line x1="278" y1="93" x2="278" y2="107"/>
  <!-- Bee wings -->
  <ellipse cx="275" cy="90" rx="10" ry="6"/>
  <ellipse cx="282" cy="88" rx="8" ry="5"/>
  <!-- Bee antenna -->
  <path d="M295 95 Q300 90 305 92"/>
  <line x1="296" y1="98" x2="302" y2="95"/>
</svg>
