<svg xmlns="http://www.w3.org/2000/svg" viewBox="0 0 400 400" fill="none" stroke="#000" stroke-width="3" stroke-linecap="round" stroke-linejoin="round">
  <!-- Rainbow arcs -->
  <path d="M50 300 Q50 100 200 100 Q350 100 350 300"/>
  <path d="M70 300 Q70 130 200 130 Q330 130 330 300"/>
  <path d="M90 300 Q90 160 200 160 Q310 160 310 300"/>
  <path d="M110 300 Q110 190 200 190 Q290 190 290 300"/>
  <path d="M130 300 Q130 220 200 220 Q270 220 270 300"/>
  <!-- Clouds -->
  <circle cx="50" cy="310" r="30"/>
  <circle cx="80" cy="300" r="35"/>
  <circle cx="30" cy="320" r="25"/>
  <circle cx="350" cy="310" r="30"/>
  <circle cx="320" cy="300" r="35"/>
  <circle cx="370" cy="320" r="25"/>
  <!-- Sun peeking -->
  <circle cx="200" cy="50" r="30"/>
  <line x1="200" y1="5" x2="200" y2="20"/>
  <line x1="240" y1="50" x2="255" y2="50"/>
  <line x1="160" y1="50" x2="145" y2="50"/>
  <line x1="225" y1="25" x2="240" y2="15"/>
  <line x1="175" y1="25" x2="160" y2="15"/>
  <!-- Small clouds -->
  <ellipse cx="100" cy="80" rx="30" ry="20"/>
  <ellipse cx="300" cy="70" rx="25" ry="18"/>
</svg>

