<svg xmlns="http://www.w3.org/2000/svg" viewBox="0 0 400 400" fill="none" stroke="#000" stroke-width="2.5" stroke-linecap="round" stroke-linejoin="round">
  <!-- Apple tree - professional coloring page -->
  
  <!-- Trunk -->
  <path d="M170 250 L165 380"/>
  <path d="M230 250 L235 380"/>
  <!-- Trunk texture -->
  <path d="M175 280 Q200 275 225 280"/>
  <path d="M172 310 Q200 305 228 310"/>
  <path d="M170 340 Q200 335 230 340"/>
  <path d="M168 370 Q200 365 232 370"/>
  
  <!-- Left branch -->
  <path d="M170 265 Q140 250 120 270"/>
  
  <!-- Right branch -->
  <path d="M230 265 Q260 250 280 270"/>
  
  <!-- Tree top (foliage) - layered circles -->
  <!-- Bottom layer -->
  <circle cx="120" cy="200" r="45"/>
  <circle cx="200" cy="220" r="50"/>
  <circle cx="280" cy="200" r="45"/>
  
  <!-- Middle layer -->
  <circle cx="150" cy="150" r="50"/>
  <circle cx="250" cy="150" r="50"/>
  <circle cx="200" cy="160" r="55"/>
  
  <!-- Top layer -->
  <circle cx="170" cy="100" r="40"/>
  <circle cx="230" cy="100" r="40"/>
  <circle cx="200" cy="80" r="45"/>
  <circle cx="200" cy="110" r="50"/>
  
  <!-- Apples -->
  <circle cx="130" cy="180" r="15"/>
  <path d="M130 165 Q135 160 138 163"/>
  
  <circle cx="175" cy="200" r="15"/>
  <path d="M175 185 Q180 180 183 183"/>
  
  <circle cx="250" cy="190" r="15"/>
  <path d="M250 175 Q255 170 258 173"/>
  
  <circle cx="280" cy="160" r="15"/>
  <path d="M280 145 Q285 140 288 143"/>
  
  <circle cx="160" cy="130" r="12"/>
  <path d="M160 118 Q164 114 167 116"/>
  
  <circle cx="230" cy="125" r="12"/>
  <path d="M230 113 Q234 109 237 111"/>
  
  <circle cx="200" cy="150" r="14"/>
  <path d="M200 136 Q205 131 208 134"/>
  
  <!-- Apple on ground -->
  <circle cx="280" cy="365" r="12"/>
  <path d="M280 353 Q285 348 288 351"/>
  
  <!-- Leaves detail -->
  <path d="M100 190 Q95 175 110 170"/>
  <path d="M290 185 Q300 175 295 160"/>
  <path d="M155 85 Q165 65 175 60 Q180 65 180 70"/>
  <path d="M230 65 Q240 55 250 50 Q255 55 255 60"/>
  
  <!-- Grass -->
  <path d="M140 380 Q145 365 150 380"/>
  <path d="M155 380 Q162 360 170 380"/>
  <path d="M230 380 Q238 360 245 380"/>
  <path d="M250 380 Q255 365 260 380"/>
  
  <!-- Ground line -->
  <path d="M50 380 Q200 385 350 380"/>
  
  <!-- Small flowers -->
  <circle cx="100" cy="375" r="8"/>
  <circle cx="100" cy="375" r="3"/>
  <path d="M100 365 L100 350"/>
  <path d="M95 355 Q100 350 105 355"/>
  
  <circle cx="310" cy="372" r="8"/>
  <circle cx="310" cy="372" r="3"/>
  <path d="M310 362 L310 347"/>
  <path d="M305 352 Q310 347 315 352"/>
  
  <!-- Bird -->
  <path d="M300 100 Q320 90 340 85 Q350 90 350 95"/>
  <circle cx="345" cy="93" r="5"/>
  <path d="M350 93 L358 91 L350 95"/>
  
  <!-- Sun -->
  <circle cx="50" cy="60" r="25"/>
  <line x1="50" y1="25" x2="50" y2="15"/>
  <line x1="50" y1="95" x2="50" y2="105"/>
  <line x1="15" y1="60" x2="5" y2="60"/>
  <line x1="85" y1="60" x2="95" y2="60"/>
  <line x1="28" y1="38" x2="20" y2="30"/>
  <line x1="72" y1="38" x2="80" y2="30"/>
  <line x1="28" y1="82" x2="20" y2="90"/>
  <line x1="72" y1="82" x2="80" y2="90"/>
</svg>
