<svg xmlns="http://www.w3.org/2000/svg" viewBox="0 0 400 400" fill="none" stroke="#000" stroke-width="2.5" stroke-linecap="round" stroke-linejoin="round">
  <!-- Tropical fish - professional coloring page -->
  
  <!-- Body -->
  <ellipse cx="200" cy="200" rx="120" ry="80"/>
  
  <!-- Tail fin -->
  <path d="M320 200 Q360 160 380 180 Q385 200 380 220 Q360 240 320 200"/>
  <!-- Tail fin rays -->
  <line x1="330" y1="185" x2="365" y2="175"/>
  <line x1="330" y1="200" x2="370" y2="200"/>
  <line x1="330" y1="215" x2="365" y2="225"/>
  
  <!-- Dorsal fin (top) -->
  <path d="M150 120 Q160 70 180 60 Q200 55 220 65 Q240 80 250 120"/>
  <!-- Dorsal fin rays -->
  <line x1="165" y1="110" x2="175" y2="75"/>
  <line x1="185" y1="105" x2="195" y2="65"/>
  <line x1="205" y1="105" x2="205" y2="65"/>
  <line x1="225" y1="105" x2="220" y2="70"/>
  <line x1="240" y1="115" x2="238" y2="85"/>
  
  <!-- Ventral fin (bottom) -->
  <path d="M160 280 Q170 320 190 330 Q210 335 230 325 Q245 310 250 280"/>
  <!-- Ventral fin rays -->
  <line x1="175" y1="290" x2="185" y2="320"/>
  <line x1="200" y1="295" x2="205" y2="325"/>
  <line x1="225" y1="290" x2="225" y2="318"/>
  
  <!-- Pectoral fin (side) -->
  <path d="M150 200 Q120 220 100 260 Q110 280 140 270 Q160 250 150 200"/>
  <!-- Pectoral fin rays -->
  <line x1="145" y1="215" x2="115" y2="245"/>
  <line x1="140" y1="230" x2="120" y2="260"/>
  
  <!-- Eye -->
  <circle cx="120" cy="185" r="25"/>
  <circle cx="125" cy="185" r="15"/>
  <circle cx="130" cy="180" r="6"/>
  
  <!-- Mouth -->
  <path d="M80 200 Q70 195 65 200 Q70 210 80 205"/>
  
  <!-- Gill -->
  <path d="M145 175 Q155 200 145 225"/>
  
  <!-- Body stripes -->
  <path d="M170 140 Q175 200 170 260"/>
  <path d="M200 130 Q205 200 200 270"/>
  <path d="M230 135 Q235 200 230 265"/>
  <path d="M260 145 Q265 200 260 255"/>
  <path d="M290 160 Q295 200 290 240"/>
  
  <!-- Scales pattern -->
  <path d="M160 170 Q170 175 160 180"/>
  <path d="M185 160 Q195 165 185 170"/>
  <path d="M210 155 Q220 160 210 165"/>
  <path d="M160 220 Q170 225 160 230"/>
  <path d="M185 230 Q195 235 185 240"/>
  <path d="M210 235 Q220 240 210 245"/>
  <path d="M240 170 Q250 175 240 180"/>
  <path d="M270 180 Q280 185 270 190"/>
  <path d="M240 220 Q250 225 240 230"/>
  <path d="M270 210 Q280 215 270 220"/>
  
  <!-- Bubbles -->
  <circle cx="50" cy="180" r="10"/>
  <circle cx="40" cy="210" r="6"/>
  <circle cx="55" cy="230" r="8"/>
  
  <!-- Seaweed -->
  <path d="M350 350 Q345 320 355 290 Q350 260 360 230"/>
  <path d="M360 350 Q370 315 365 280"/>
  <path d="M375 350 Q380 330 375 310"/>
  
  <!-- Small bubbles from fish -->
  <circle cx="60" cy="195" r="4"/>
  <circle cx="48" cy="200" r="3"/>
</svg>
