<svg xmlns="http://www.w3.org/2000/svg" viewBox="0 0 400 400" fill="none" stroke="#000" stroke-width="3" stroke-linecap="round" stroke-linejoin="round">
  <ellipse cx="200" cy="200" rx="60" ry="40"/>
  <ellipse cx="200" cy="270" rx="50" ry="35"/>
  <ellipse cx="200" cy="330" rx="40" ry="30"/>
  <circle cx="200" cy="140" r="40"/>
  <circle cx="180" cy="130" r="10"/>
  <circle cx="220" cy="130" r="10"/>
  <path d="M185 155 Q200 165 215 155"/>
  <line x1="165" y1="100" x2="150" y2="70"/>
  <line x1="235" y1="100" x2="250" y2="70"/>
  <circle cx="150" cy="65" r="10"/>
  <circle cx="250" cy="65" r="10"/>
  <path d="M140 180 Q80 140 50 170 Q30 200 60 220"/>
  <path d="M260 180 Q320 140 350 170 Q370 200 340 220"/>
  <path d="M60 220 L40 230 L60 230"/>
  <path d="M340 220 L360 230 L340 230"/>
  <ellipse cx="170" cy="370" rx="20" ry="15"/>
  <ellipse cx="230" cy="370" rx="20" ry="15"/>
</svg>

