<svg xmlns="http://www.w3.org/2000/svg" viewBox="0 0 400 400" fill="none" stroke="#000" stroke-width="3" stroke-linecap="round" stroke-linejoin="round">
  <circle cx="200" cy="80" r="50"/>
  <path d="M150 60 Q200 30 250 60"/>
  <circle cx="180" cy="75" r="10"/>
  <circle cx="220" cy="75" r="10"/>
  <path d="M190 100 Q200 110 210 100"/>
  <path d="M150 130 L120 200"/>
  <path d="M250 130 L280 200"/>
  <ellipse cx="200" cy="200" rx="60" ry="80"/>
  <path d="M140 200 Q200 280 260 200"/>
  <path d="M160 280 Q200 350 240 280"/>
  <path d="M180 350 Q150 400 120 380"/>
  <path d="M220 350 Q250 400 280 380"/>
  <path d="M120 380 Q100 360 120 340"/>
  <path d="M280 380 Q300 360 280 340"/>
  <path d="M160 150 Q180 170 200 150"/>
  <path d="M200 150 Q220 170 240 150"/>
</svg>

