<svg xmlns="http://www.w3.org/2000/svg" viewBox="0 0 400 400" fill="none" stroke="#000" stroke-width="3" stroke-linecap="round" stroke-linejoin="round">
  <path d="M50 280 Q100 250 200 250 Q300 250 350 280"/>
  <path d="M50 280 Q50 340 200 340 Q350 340 350 280"/>
  <line x1="200" y1="250" x2="200" y2="80"/>
  <rect x="150" y="100" width="100" height="80"/>
  <line x1="150" y1="140" x2="250" y2="140"/>
  <path d="M200 80 L200 60"/>
  <path d="M200 60 Q150 80 150 100"/>
  <circle cx="200" cy="55" r="10"/>
  <line x1="100" y1="250" x2="100" y2="180"/>
  <path d="M100 180 L100 200 L140 200"/>
  <line x1="300" y1="250" x2="300" y2="180"/>
  <path d="M300 180 L300 200 L260 200"/>
  <path d="M30 340 Q80 320 130 340"/>
  <path d="M270 340 Q320 320 370 340"/>
</svg>

