<svg xmlns="http://www.w3.org/2000/svg" viewBox="0 0 400 400" fill="none" stroke="#000" stroke-width="3" stroke-linecap="round" stroke-linejoin="round">
  <circle cx="200" cy="100" r="50"/>
  <path d="M200 150 Q250 200 220 280 Q200 340 180 380 Q160 340 180 300"/>
  <path d="M150 100 Q130 80 140 60"/>
  <circle cx="180" cy="90" r="12"/>
  <circle cx="183" cy="88" r="5"/>
  <path d="M210 100 L250 90"/>
  <path d="M210 110 L240 120"/>
  <path d="M200 180 Q160 200 180 230"/>
  <path d="M200 220 Q160 240 180 270"/>
  <path d="M200 260 Q160 280 180 310"/>
  <path d="M220 200 Q240 210 230 240"/>
  <path d="M210 250 Q230 260 220 290"/>
</svg>

