<svg xmlns="http://www.w3.org/2000/svg" viewBox="0 0 400 400" fill="none" stroke="#000" stroke-width="3" stroke-linecap="round" stroke-linejoin="round">
  <path d="M200 80 Q350 150 350 280 Q350 350 200 350 Q50 350 50 280 Q50 150 200 80"/>
  <path d="M200 80 L200 350"/>
  <path d="M200 80 Q280 150 300 280"/>
  <path d="M200 80 Q120 150 100 280"/>
  <path d="M200 80 Q320 200 330 320"/>
  <path d="M200 80 Q80 200 70 320"/>
  <path d="M80 280 Q140 300 200 280 Q260 300 320 280"/>
  <path d="M100 320 Q150 340 200 320 Q250 340 300 320"/>
</svg>

