<svg xmlns="http://www.w3.org/2000/svg" viewBox="0 0 400 400" fill="none" stroke="#000" stroke-width="3" stroke-linecap="round" stroke-linejoin="round">
  <path d="M200 80 Q280 60 320 120 Q380 180 340 260 Q320 340 240 360 Q160 380 100 320 Q40 260 60 180 Q80 100 140 80 Q180 60 200 80"/>
  <circle cx="150" cy="150" r="25"/>
  <circle cx="260" cy="140" r="18"/>
  <circle cx="280" cy="220" r="30"/>
  <circle cx="160" cy="280" r="22"/>
  <circle cx="220" cy="200" r="15"/>
  <circle cx="120" cy="220" r="12"/>
  <path d="M100 100 L80 60"/>
  <path d="M300 100 L330 50"/>
  <path d="M340 300 L380 330"/>
</svg>

