<svg xmlns="http://www.w3.org/2000/svg" viewBox="0 0 400 400" fill="none" stroke="#000" stroke-width="3" stroke-linecap="round" stroke-linejoin="round">
  <ellipse cx="200" cy="200" rx="150" ry="100"/>
  <ellipse cx="200" cy="200" rx="100" ry="60"/>
  <ellipse cx="200" cy="200" rx="50" ry="30"/>
  <circle cx="200" cy="200" r="20"/>
  <path d="M100 150 Q150 120 200 150 Q250 180 300 150"/>
  <path d="M80 200 Q140 170 200 200 Q260 230 320 200"/>
  <path d="M100 250 Q150 220 200 250 Q250 280 300 250"/>
  <circle cx="120" cy="140" r="8"/>
  <circle cx="280" cy="140" r="6"/>
  <circle cx="100" cy="220" r="5"/>
  <circle cx="300" cy="180" r="7"/>
  <circle cx="150" cy="270" r="6"/>
  <circle cx="260" cy="260" r="5"/>
</svg>

