<svg xmlns="http://www.w3.org/2000/svg" viewBox="0 0 400 400" fill="none" stroke="#000" stroke-width="2.5" stroke-linecap="round" stroke-linejoin="round">
  <!-- Saturn-like planet with rings - professional coloring page -->
  
  <!-- Planet body -->
  <circle cx="200" cy="200" r="100"/>
  
  <!-- Planet surface details -->
  <path d="M110 170 Q200 150 290 170"/>
  <path d="M105 200 Q200 180 295 200"/>
  <path d="M110 230 Q200 210 290 230"/>
  <path d="M120 260 Q200 245 280 260"/>
  
  <!-- Surface spots/craters -->
  <circle cx="160" cy="170" r="15"/>
  <circle cx="230" cy="185" r="20"/>
  <circle cx="180" cy="230" r="12"/>
  <circle cx="250" cy="225" r="10"/>
  
  <!-- Ring system (behind planet - top) -->
  <ellipse cx="200" cy="200" rx="170" ry="40" stroke-dasharray="10 5"/>
  
  <!-- Rings (multiple layers) -->
  <ellipse cx="200" cy="200" rx="180" ry="45"/>
  <ellipse cx="200" cy="200" rx="165" ry="38"/>
  <ellipse cx="200" cy="200" rx="150" ry="32"/>
  
  <!-- Ring divisions -->
  <path d="M30 185 Q200 160 370 185" stroke-dasharray="5 3"/>
  <path d="M40 195 Q200 175 360 195" stroke-dasharray="5 3"/>
  <path d="M50 205 Q200 230 350 205" stroke-dasharray="5 3"/>
  <path d="M45 215 Q200 245 355 215" stroke-dasharray="5 3"/>
  
  <!-- Moons -->
  <circle cx="60" cy="100" r="20"/>
  <!-- Moon crater -->
  <circle cx="55" cy="95" r="5"/>
  <circle cx="65" cy="105" r="4"/>
  
  <circle cx="340" cy="300" r="15"/>
  <circle cx="338" cy="298" r="4"/>
  
  <!-- Stars -->
  <path d="M50 250 L53 260 L63 260 L55 267 L58 277 L50 270 L42 277 L45 267 L37 260 L47 260 Z"/>
  <path d="M350 80 L352 87 L359 87 L353 92 L355 99 L350 94 L345 99 L347 92 L341 87 L348 87 Z"/>
  <path d="M320 150 L322 157 L329 157 L323 162 L325 169 L320 164 L315 169 L317 162 L311 157 L318 157 Z"/>
  <path d="M80 320 L82 327 L89 327 L83 332 L85 339 L80 334 L75 339 L77 332 L71 327 L78 327 Z"/>
  
  <!-- Shooting star -->
  <path d="M280 50 L310 80"/>
  <path d="M275 55 L265 50"/>
  <path d="M275 60 L260 60"/>
  <path d="M280 65 L270 75"/>
  
  <!-- Small stars (dots) -->
  <circle cx="30" cy="50" r="3"/>
  <circle cx="370" cy="350" r="3"/>
  <circle cx="150" cy="40" r="2"/>
  <circle cx="250" cy="370" r="2"/>
  <circle cx="380" cy="200" r="2"/>
  <circle cx="20" cy="180" r="2"/>
  <circle cx="100" cy="360" r="3"/>
  <circle cx="300" cy="30" r="3"/>
  
  <!-- Comet -->
  <ellipse cx="80" cy="50" rx="8" ry="5"/>
  <path d="M88 50 Q110 45 130 55"/>
  <path d="M86 52 Q105 50 120 58"/>
  <path d="M86 48 Q105 45 115 50"/>
  
  <!-- Galaxy spiral -->
  <path d="M350 250 Q360 240 370 250 Q375 265 365 275 Q350 280 345 265"/>
</svg>
