<svg xmlns="http://www.w3.org/2000/svg" viewBox="0 0 400 400" fill="none" stroke="#000" stroke-width="2.5" stroke-linecap="round" stroke-linejoin="round">
  <!-- Passenger airplane - professional coloring page -->
  
  <!-- Fuselage (body) -->
  <path d="M30 200 Q30 180 50 180 L320 180 Q370 180 380 200 Q370 220 320 220 L50 220 Q30 220 30 200"/>
  
  <!-- Cockpit windows -->
  <path d="M50 190 Q60 185 70 190 Q60 195 50 190"/>
  <ellipse cx="85" cy="190" rx="8" ry="6"/>
  
  <!-- Passenger windows -->
  <circle cx="120" cy="200" r="8"/>
  <circle cx="145" cy="200" r="8"/>
  <circle cx="170" cy="200" r="8"/>
  <circle cx="195" cy="200" r="8"/>
  <circle cx="220" cy="200" r="8"/>
  <circle cx="245" cy="200" r="8"/>
  <circle cx="270" cy="200" r="8"/>
  <circle cx="295" cy="200" r="8"/>
  
  <!-- Door -->
  <path d="M100 185 L100 215 L115 215 L115 185 Z"/>
  <circle cx="112" cy="200" r="3"/>
  
  <!-- Left wing -->
  <path d="M140 220 L80 320 L100 325 L180 240"/>
  <!-- Wing details -->
  <line x1="100" y1="260" x2="170" y2="225"/>
  <path d="M85 310 L90 320 L100 318"/>
  
  <!-- Right wing -->
  <path d="M140 180 L80 80 L100 75 L180 160"/>
  <!-- Wing details -->
  <line x1="100" y1="140" x2="170" y2="175"/>
  <path d="M85 90 L90 80 L100 82"/>
  
  <!-- Left engine -->
  <ellipse cx="110" cy="290" rx="20" ry="12"/>
  <ellipse cx="100" cy="290" rx="8" ry="8"/>
  
  <!-- Right engine -->
  <ellipse cx="110" cy="110" rx="20" ry="12"/>
  <ellipse cx="100" cy="110" rx="8" ry="8"/>
  
  <!-- Tail fin (vertical) -->
  <path d="M320 180 L340 120 L365 120 L355 180"/>
  <!-- Tail fin detail -->
  <line x1="340" y1="140" x2="355" y2="140"/>
  <line x1="345" y1="155" x2="355" y2="155"/>
  
  <!-- Horizontal tail wing - top -->
  <path d="M300 185 L320 160 L370 160 L350 185"/>
  
  <!-- Horizontal tail wing - bottom -->
  <path d="M300 215 L320 240 L370 240 L350 215"/>
  
  <!-- Nose cone detail -->
  <path d="M30 195 Q35 200 30 205"/>
  
  <!-- Fuselage stripes -->
  <line x1="50" y1="190" x2="350" y2="190"/>
  <line x1="50" y1="210" x2="350" y2="210"/>
  
  <!-- Landing gear -->
  <line x1="150" y1="220" x2="150" y2="250"/>
  <ellipse cx="150" cy="255" rx="12" ry="8"/>
  <ellipse cx="145" cy="255" rx="5" ry="5"/>
  <ellipse cx="155" cy="255" rx="5" ry="5"/>
  
  <line x1="330" y1="220" x2="330" y2="245"/>
  <ellipse cx="330" cy="250" rx="10" ry="6"/>
  
  <!-- Clouds -->
  <path d="M20 50 Q40 40 60 50 Q80 35 100 50 Q120 40 130 55 Q110 70 90 65 Q70 75 50 65 Q30 70 20 50"/>
  <path d="M280 320 Q300 310 320 320 Q340 305 360 320 Q380 310 390 325 Q370 340 350 335 Q330 345 310 335 Q290 340 280 320"/>
</svg>
