<svg xmlns="http://www.w3.org/2000/svg" viewBox="0 0 400 400" fill="none" stroke="#000" stroke-width="3" stroke-linecap="round" stroke-linejoin="round">
  <!-- Balloon 1 (center) -->
  <ellipse cx="200" cy="140" rx="60" ry="80"/>
  <path d="M200 220 L195 235 L205 235 Z"/>
  <path d="M200 235 Q180 280 200 300 Q220 280 200 300"/>
  
  <!-- Balloon 2 (left) -->
  <ellipse cx="100" cy="160" rx="50" ry="65"/>
  <path d="M100 225 L95 238 L105 238 Z"/>
  <path d="M100 238 Q85 270 100 300"/>
  
  <!-- Balloon 3 (right) -->
  <ellipse cx="300" cy="150" rx="55" ry="70"/>
  <path d="M300 220 L295 233 L305 233 Z"/>
  <path d="M300 233 Q315 270 300 300"/>
  
  <!-- Balloon 4 (back left) -->
  <ellipse cx="140" cy="100" rx="45" ry="55"/>
  <path d="M140 155 L136 165 L144 165 Z"/>
  <path d="M140 165 Q150 200 140 250 Q155 230 140 300"/>
  
  <!-- Balloon 5 (back right) -->
  <ellipse cx="260" cy="110" rx="48" ry="60"/>
  <path d="M260 170 L256 182 L264 182 Z"/>
  <path d="M260 182 Q250 220 260 300"/>
  
  <!-- Strings meeting point -->
  <path d="M100 300 L200 350"/>
  <path d="M140 300 L200 350"/>
  <path d="M200 300 L200 350"/>
  <path d="M260 300 L200 350"/>
  <path d="M300 300 L200 350"/>
  
  <!-- Bow -->
  <circle cx="200" cy="350" r="10"/>
  <path d="M180 340 Q170 350 180 360"/>
  <path d="M220 340 Q230 350 220 360"/>
  
  <!-- String tail -->
  <path d="M200 360 Q190 380 200 390"/>
  
  <!-- Highlight on balloons -->
  <ellipse cx="180" cy="110" rx="10" ry="15"/>
  <ellipse cx="85" cy="135" rx="8" ry="12"/>
  <ellipse cx="285" cy="125" rx="9" ry="13"/>
</svg>

