<svg xmlns="http://www.w3.org/2000/svg" viewBox="0 0 400 400" fill="none" stroke="#000" stroke-width="2.5" stroke-linecap="round" stroke-linejoin="round">
  <!-- Fairy tale castle - professional coloring page -->
  
  <!-- Main building -->
  <rect x="100" y="200" width="200" height="180" rx="0"/>
  
  <!-- Central tower -->
  <rect x="160" y="100" width="80" height="100"/>
  <!-- Tower roof -->
  <path d="M155 100 L200 40 L245 100"/>
  <!-- Tower flag -->
  <line x1="200" y1="40" x2="200" y2="15"/>
  <path d="M200 15 L230 25 L200 35"/>
  
  <!-- Left tower -->
  <rect x="70" y="150" width="50" height="50"/>
  <!-- Left tower roof -->
  <path d="M65 150 L95 100 L125 150"/>
  <!-- Left tower top crenellations -->
  <path d="M70 150 L70 140 L80 140 L80 150"/>
  <path d="M90 150 L90 140 L100 140 L100 150"/>
  <path d="M110 150 L110 140 L120 140 L120 150"/>
  
  <!-- Right tower -->
  <rect x="280" y="150" width="50" height="50"/>
  <!-- Right tower roof -->
  <path d="M275 150 L305 100 L335 150"/>
  <!-- Right tower top crenellations -->
  <path d="M280 150 L280 140 L290 140 L290 150"/>
  <path d="M300 150 L300 140 L310 140 L310 150"/>
  <path d="M320 150 L320 140 L330 140 L330 150"/>
  
  <!-- Main crenellations -->
  <path d="M100 200 L100 185 L115 185 L115 200"/>
  <path d="M130 200 L130 185 L145 185 L145 200"/>
  <path d="M160 200 L160 185 L175 185 L175 200"/>
  <path d="M225 200 L225 185 L240 185 L240 200"/>
  <path d="M255 200 L255 185 L270 185 L270 200"/>
  <path d="M285 200 L285 185 L300 185 L300 200"/>
  
  <!-- Main door -->
  <path d="M170 380 L170 300 Q200 280 230 300 L230 380"/>
  <!-- Door details -->
  <line x1="200" y1="300" x2="200" y2="380"/>
  <!-- Door handle -->
  <circle cx="185" cy="340" r="5"/>
  <circle cx="215" cy="340" r="5"/>
  
  <!-- Windows on main building -->
  <!-- Left window -->
  <path d="M120 250 L120 220 Q135 210 150 220 L150 250"/>
  <line x1="135" y1="210" x2="135" y2="250"/>
  <line x1="120" y1="235" x2="150" y2="235"/>
  
  <!-- Right window -->
  <path d="M250 250 L250 220 Q265 210 280 220 L280 250"/>
  <line x1="265" y1="210" x2="265" y2="250"/>
  <line x1="250" y1="235" x2="280" y2="235"/>
  
  <!-- Tower window -->
  <circle cx="200" cy="140" r="15"/>
  <line x1="200" y1="125" x2="200" y2="155"/>
  <line x1="185" y1="140" x2="215" y2="140"/>
  
  <!-- Small tower windows -->
  <rect x="85" y="165" width="20" height="25"/>
  <line x1="95" y1="165" x2="95" y2="190"/>
  
  <rect x="295" y="165" width="20" height="25"/>
  <line x1="305" y1="165" x2="305" y2="190"/>
  
  <!-- Stone texture -->
  <line x1="100" y1="250" x2="170" y2="250"/>
  <line x1="230" y1="250" x2="300" y2="250"/>
  <line x1="100" y1="300" x2="170" y2="300"/>
  <line x1="230" y1="300" x2="300" y2="300"/>
  <line x1="100" y1="350" x2="170" y2="350"/>
  <line x1="230" y1="350" x2="300" y2="350"/>
  
  <!-- Ground -->
  <line x1="30" y1="380" x2="370" y2="380"/>
  
  <!-- Bushes -->
  <circle cx="60" cy="370" r="20"/>
  <circle cx="75" cy="360" r="15"/>
  <circle cx="50" cy="360" r="15"/>
  
  <circle cx="340" cy="370" r="20"/>
  <circle cx="355" cy="360" r="15"/>
  <circle cx="325" cy="360" r="15"/>
  
  <!-- Stars -->
  <path d="M50 80 L53 90 L63 90 L55 97 L58 107 L50 100 L42 107 L45 97 L37 90 L47 90 Z"/>
  <path d="M350 60 L352 67 L359 67 L353 72 L355 79 L350 74 L345 79 L347 72 L341 67 L348 67 Z"/>
  
  <!-- Moon -->
  <circle cx="320" cy="50" r="25"/>
  <circle cx="330" cy="45" r="20"/>
</svg>
