<svg xmlns="http://www.w3.org/2000/svg" viewBox="0 0 400 400" fill="none" stroke="#000" stroke-width="3" stroke-linecap="round" stroke-linejoin="round">
  <ellipse cx="200" cy="300" rx="80" ry="60"/>
  <ellipse cx="200" cy="220" rx="50" ry="40"/>
  <rect x="185" y="60" width="30" height="160"/>
  <rect x="175" y="40" width="50" height="30" rx="5"/>
  <line x1="180" y1="40" x2="180" y2="20"/>
  <line x1="195" y1="40" x2="195" y2="20"/>
  <line x1="210" y1="40" x2="210" y2="20"/>
  <line x1="220" y1="40" x2="220" y2="20"/>
  <circle cx="180" cy="15" r="8"/>
  <circle cx="195" cy="15" r="8"/>
  <circle cx="210" cy="15" r="8"/>
  <circle cx="220" cy="15" r="8"/>
  <circle cx="200" cy="300" r="20"/>
  <line x1="190" y1="220" x2="190" y2="340"/>
  <line x1="200" y1="220" x2="200" y2="340"/>
  <line x1="210" y1="220" x2="210" y2="340"/>
</svg>

