<svg xmlns="http://www.w3.org/2000/svg" viewBox="0 0 400 400" fill="none" stroke="#000" stroke-width="3" stroke-linecap="round" stroke-linejoin="round">
  <!-- House base -->
  <rect x="80" y="180" width="240" height="170"/>
  <!-- Roof -->
  <path d="M60 180 L200 60 L340 180"/>
  <!-- Chimney -->
  <rect x="270" y="90" width="40" height="60"/>
  <!-- Smoke -->
  <circle cx="290" cy="70" r="10"/>
  <circle cx="300" cy="55" r="8"/>
  <circle cx="295" cy="40" r="6"/>
  <!-- Door -->
  <rect x="165" y="260" width="70" height="90"/>
  <!-- Door knob -->
  <circle cx="220" cy="310" r="8"/>
  <!-- Door arch -->
  <path d="M165 260 Q200 230 235 260"/>
  <!-- Windows -->
  <rect x="100" y="210" width="50" height="50"/>
  <rect x="250" y="210" width="50" height="50"/>
  <!-- Window crosses -->
  <line x1="125" y1="210" x2="125" y2="260"/>
  <line x1="100" y1="235" x2="150" y2="235"/>
  <line x1="275" y1="210" x2="275" y2="260"/>
  <line x1="250" y1="235" x2="300" y2="235"/>
  <!-- Attic window -->
  <circle cx="200" cy="130" r="25"/>
  <line x1="200" y1="105" x2="200" y2="155"/>
  <line x1="175" y1="130" x2="225" y2="130"/>
  <!-- Ground -->
  <line x1="30" y1="350" x2="370" y2="350"/>
  <!-- Path to door -->
  <path d="M165 350 Q180 340 200 350 Q220 340 235 350"/>
  <!-- Flowers -->
  <circle cx="100" cy="340" r="8"/>
  <line x1="100" y1="348" x2="100" y2="350"/>
  <circle cx="300" cy="340" r="8"/>
  <line x1="300" y1="348" x2="300" y2="350"/>
</svg>

