<svg xmlns="http://www.w3.org/2000/svg" viewBox="0 0 400 400" fill="none" stroke="#000" stroke-width="3" stroke-linecap="round" stroke-linejoin="round">
  <rect x="130" y="80" width="140" height="100" rx="10"/>
  <rect x="100" y="200" width="200" height="120" rx="10"/>
  <circle cx="170" cy="130" r="20"/>
  <circle cx="230" cy="130" r="20"/>
  <rect x="170" y="160" width="60" height="15" rx="5"/>
  <line x1="200" y1="30" x2="200" y2="80"/>
  <circle cx="200" cy="20" r="15"/>
  <rect x="60" y="220" width="40" height="80" rx="5"/>
  <rect x="300" y="220" width="40" height="80" rx="5"/>
  <rect x="130" y="320" width="50" height="60" rx="5"/>
  <rect x="220" y="320" width="50" height="60" rx="5"/>
  <rect x="140" y="230" width="40" height="30" rx="5"/>
  <rect x="220" y="230" width="40" height="30" rx="5"/>
  <circle cx="200" cy="290" r="20"/>
</svg>

