<svg xmlns="http://www.w3.org/2000/svg" viewBox="0 0 400 400" fill="none" stroke="#000" stroke-width="2.5" stroke-linecap="round" stroke-linejoin="round">
  <!-- Cute teddy bear - professional coloring page -->
  
  <!-- Body -->
  <ellipse cx="200" cy="280" rx="90" ry="80"/>
  
  <!-- Head -->
  <circle cx="200" cy="140" r="80"/>
  
  <!-- Left ear -->
  <circle cx="120" cy="80" r="35"/>
  <circle cx="120" cy="80" r="20"/>
  
  <!-- Right ear -->
  <circle cx="280" cy="80" r="35"/>
  <circle cx="280" cy="80" r="20"/>
  
  <!-- Face (muzzle area) -->
  <ellipse cx="200" cy="170" rx="40" ry="30"/>
  
  <!-- Left eye -->
  <circle cx="165" cy="130" r="18"/>
  <circle cx="165" cy="133" r="10"/>
  <circle cx="161" cy="127" r="4"/>
  
  <!-- Right eye -->
  <circle cx="235" cy="130" r="18"/>
  <circle cx="235" cy="133" r="10"/>
  <circle cx="231" cy="127" r="4"/>
  
  <!-- Eyebrows -->
  <path d="M145 108 Q165 100 185 108"/>
  <path d="M255 108 Q235 100 215 108"/>
  
  <!-- Nose -->
  <ellipse cx="200" cy="165" rx="15" ry="12"/>
  <ellipse cx="200" cy="162" rx="5" ry="3"/>
  
  <!-- Mouth -->
  <path d="M200 177 L200 190"/>
  <path d="M200 190 Q185 200 175 195"/>
  <path d="M200 190 Q215 200 225 195"/>
  
  <!-- Belly patch -->
  <ellipse cx="200" cy="290" rx="50" ry="45"/>
  
  <!-- Left arm -->
  <path d="M115 220 Q70 240 55 280 Q50 320 75 340 Q100 355 120 340"/>
  <!-- Left paw -->
  <ellipse cx="90" cy="330" rx="28" ry="25"/>
  <!-- Paw pads -->
  <ellipse cx="90" cy="325" rx="12" ry="8"/>
  <circle cx="75" cy="340" r="6"/>
  <circle cx="90" cy="345" r="6"/>
  <circle cx="105" cy="340" r="6"/>
  
  <!-- Right arm -->
  <path d="M285 220 Q330 240 345 280 Q350 320 325 340 Q300 355 280 340"/>
  <!-- Right paw -->
  <ellipse cx="310" cy="330" rx="28" ry="25"/>
  <!-- Paw pads -->
  <ellipse cx="310" cy="325" rx="12" ry="8"/>
  <circle cx="295" cy="340" r="6"/>
  <circle cx="310" cy="345" r="6"/>
  <circle cx="325" cy="340" r="6"/>
  
  <!-- Left leg -->
  <ellipse cx="145" cy="355" rx="35" ry="30"/>
  <!-- Left foot pads -->
  <ellipse cx="145" cy="350" rx="15" ry="10"/>
  <circle cx="125" cy="365" r="7"/>
  <circle cx="145" cy="370" r="7"/>
  <circle cx="165" cy="365" r="7"/>
  
  <!-- Right leg -->
  <ellipse cx="255" cy="355" rx="35" ry="30"/>
  <!-- Right foot pads -->
  <ellipse cx="255" cy="350" rx="15" ry="10"/>
  <circle cx="235" cy="365" r="7"/>
  <circle cx="255" cy="370" r="7"/>
  <circle cx="275" cy="365" r="7"/>
  
  <!-- Bow tie -->
  <path d="M170 205 L185 215 L170 225 Z"/>
  <path d="M230 205 L215 215 L230 225 Z"/>
  <circle cx="200" cy="215" r="8"/>
</svg>
