<svg xmlns="http://www.w3.org/2000/svg" viewBox="0 0 400 400" fill="none" stroke="#000" stroke-width="2.5" stroke-linecap="round" stroke-linejoin="round">
  <!-- Beautiful butterfly - professional coloring page -->
  
  <!-- Body -->
  <ellipse cx="200" cy="200" rx="12" ry="80"/>
  
  <!-- Head -->
  <circle cx="200" cy="100" r="20"/>
  
  <!-- Eyes -->
  <circle cx="192" cy="95" r="6"/>
  <circle cx="208" cy="95" r="6"/>
  
  <!-- Antennae -->
  <path d="M190 85 Q175 50 160 40"/>
  <circle cx="160" cy="40" r="6"/>
  <path d="M210 85 Q225 50 240 40"/>
  <circle cx="240" cy="40" r="6"/>
  
  <!-- Smile -->
  <path d="M192 108 Q200 115 208 108"/>
  
  <!-- Left upper wing -->
  <path d="M188 140 Q120 100 80 120 Q40 145 50 200 Q55 240 100 260 Q140 275 188 220"/>
  <!-- Left upper wing patterns -->
  <circle cx="100" cy="170" r="25"/>
  <circle cx="100" cy="170" r="15"/>
  <circle cx="130" cy="200" r="18"/>
  <circle cx="75" cy="210" r="12"/>
  <ellipse cx="110" cy="240" rx="20" ry="12"/>
  
  <!-- Right upper wing -->
  <path d="M212 140 Q280 100 320 120 Q360 145 350 200 Q345 240 300 260 Q260 275 212 220"/>
  <!-- Right upper wing patterns -->
  <circle cx="300" cy="170" r="25"/>
  <circle cx="300" cy="170" r="15"/>
  <circle cx="270" cy="200" r="18"/>
  <circle cx="325" cy="210" r="12"/>
  <ellipse cx="290" cy="240" rx="20" ry="12"/>
  
  <!-- Left lower wing -->
  <path d="M188 220 Q140 250 120 290 Q110 340 140 360 Q180 375 188 320"/>
  <!-- Left lower wing patterns -->
  <circle cx="145" cy="300" r="20"/>
  <circle cx="145" cy="300" r="10"/>
  <ellipse cx="160" cy="340" rx="15" ry="10"/>
  
  <!-- Right lower wing -->
  <path d="M212 220 Q260 250 280 290 Q290 340 260 360 Q220 375 212 320"/>
  <!-- Right lower wing patterns -->
  <circle cx="255" cy="300" r="20"/>
  <circle cx="255" cy="300" r="10"/>
  <ellipse cx="240" cy="340" rx="15" ry="10"/>
  
  <!-- Body segments -->
  <line x1="188" y1="130" x2="212" y2="130"/>
  <line x1="188" y1="160" x2="212" y2="160"/>
  <line x1="188" y1="190" x2="212" y2="190"/>
  <line x1="188" y1="220" x2="212" y2="220"/>
  <line x1="188" y1="250" x2="212" y2="250"/>
  
  <!-- Wing edge details -->
  <path d="M80 120 Q75 130 80 140"/>
  <path d="M60 160 Q55 170 60 180"/>
  <path d="M50 200 Q45 210 50 220"/>
  
  <path d="M320 120 Q325 130 320 140"/>
  <path d="M340 160 Q345 170 340 180"/>
  <path d="M350 200 Q355 210 350 220"/>
  
  <!-- Decorative dots on wings -->
  <circle cx="90" cy="140" r="5"/>
  <circle cx="70" cy="180" r="5"/>
  <circle cx="130" cy="160" r="5"/>
  
  <circle cx="310" cy="140" r="5"/>
  <circle cx="330" cy="180" r="5"/>
  <circle cx="270" cy="160" r="5"/>
</svg>
