<svg xmlns="http://www.w3.org/2000/svg" viewBox="0 0 512 512">
  <!-- Professional Cute Cat Coloring Page -->
  <g fill="none" stroke="#000" stroke-width="4" stroke-linecap="round" stroke-linejoin="round">
    <!-- Tail -->
    <path d="M360 400c20 0 40-20 40-50s-30-60-50-60-30 20-30 40"/>
    
    <!-- Body Outline -->
    <path d="M180 440h150c40 0 70-30 70-70V280c0-50-40-90-90-90h-80c-50 0-90 40-90 90v90c0 40 30 70 70 70z"/>
    
    <!-- Left Leg -->
    <path d="M180 440V340c0-10-10-20-20-20s-20 10-20 20v100"/>
    
    <!-- Right Leg -->
    <path d="M330 440V340c0-10-10-20-20-20s-20 10-20 20v100"/>
    
    <!-- Head Main Shape -->
    <path d="M150 200c0-60 40-110 106-110 66 0 106 50 106 110 0 70-50 130-106 130-56 0-106-60-106-130z"/>
    
    <!-- Left Ear -->
    <path d="M160 130L140 60l70 30"/>
    
    <!-- Right Ear -->
    <path d="M352 130l20-70-70 30"/>
    
    <!-- Eyes -->
    <circle cx="210" cy="190" r="15" fill="#fff"/>
    <circle cx="210" cy="190" r="5" fill="#000" stroke="none"/>
    <circle cx="302" cy="190" r="15" fill="#fff"/>
    <circle cx="302" cy="190" r="5" fill="#000" stroke="none"/>
    
    <!-- Nose -->
    <path d="M246 220l10 10 10-10z" fill="#000" stroke="none"/>
    
    <!-- Mouth -->
    <path d="M256 230v20M236 260c10-10 20-10 20-10s10 0 20 10"/>
    
    <!-- Whiskers -->
    <path d="M130 210h50M130 230h50M382 210h-50M382 230h-50"/>
    
    <!-- Belly Patch -->
    <path d="M210 320a50 50 0 0 0 92 0" opacity="0.6"/>
  </g>
</svg>
