<svg xmlns="http://www.w3.org/2000/svg" viewBox="0 0 400 400" fill="none" stroke="#000" stroke-width="3" stroke-linecap="round" stroke-linejoin="round">
  <ellipse cx="200" cy="260" rx="110" ry="70"/>
  <circle cx="200" cy="150" r="60"/>
  <ellipse cx="200" cy="180" rx="40" ry="30"/>
  <circle cx="185" cy="175" r="5"/>
  <circle cx="215" cy="175" r="5"/>
  <circle cx="170" cy="130" r="15"/>
  <circle cx="230" cy="130" r="15"/>
  <path d="M140 100 Q130 70 150 60"/>
  <path d="M260 100 Q270 70 250 60"/>
  <path d="M185 200 Q200 215 215 200"/>
  <ellipse cx="130" cy="330" rx="20" ry="40"/>
  <ellipse cx="270" cy="330" rx="20" ry="40"/>
  <ellipse cx="170" cy="330" rx="20" ry="40"/>
  <ellipse cx="230" cy="330" rx="20" ry="40"/>
  <circle cx="160" cy="250" r="20"/>
  <circle cx="240" cy="270" r="15"/>
</svg>

