<svg xmlns="http://www.w3.org/2000/svg" viewBox="0 0 400 400" fill="none" stroke="#000" stroke-width="2.5" stroke-linecap="round" stroke-linejoin="round">
  <!-- Magical unicorn - professional coloring page -->
  
  <!-- Body -->
  <ellipse cx="200" cy="250" rx="100" ry="70"/>
  
  <!-- Neck -->
  <path d="M260 200 Q290 160 280 120 Q270 100 250 95"/>
  <path d="M230 190 Q260 150 255 115 Q250 95 235 90"/>
  
  <!-- Head -->
  <path d="M250 95 Q280 70 270 50 Q255 35 230 45 Q210 55 205 80 Q205 100 220 110 Q235 115 250 95"/>
  
  <!-- Horn (spiral) -->
  <path d="M240 45 L250 10"/>
  <path d="M242 40 Q248 35 252 40 Q256 45 250 48"/>
  <path d="M244 32 Q250 28 254 32 Q258 36 252 40"/>
  <path d="M246 24 Q251 20 255 24 Q259 28 253 32"/>
  <path d="M248 16 Q252 13 255 17"/>
  
  <!-- Ear -->
  <path d="M265 55 Q280 40 275 60 Q270 75 260 70"/>
  <!-- Inner ear -->
  <path d="M268 58 Q275 50 273 62"/>
  
  <!-- Eye -->
  <circle cx="235" cy="70" r="12"/>
  <circle cx="238" cy="68" r="6"/>
  <circle cx="240" cy="66" r="2"/>
  
  <!-- Eyelashes -->
  <path d="M245 62 L250 58"/>
  <path d="M246 66 L252 64"/>
  <path d="M246 70 L252 70"/>
  
  <!-- Nostril -->
  <ellipse cx="215" cy="85" rx="4" ry="3"/>
  
  <!-- Mane -->
  <path d="M255 60 Q270 80 265 100 Q260 120 270 140"/>
  <path d="M250 70 Q265 90 260 110 Q255 130 265 150"/>
  <path d="M245 80 Q260 100 255 120 Q250 140 260 160"/>
  <path d="M240 90 Q255 110 250 130 Q245 150 255 170"/>
  <path d="M235 100 Q250 120 245 140 Q240 160 250 180"/>
  
  <!-- Mane waves on neck -->
  <path d="M265 95 Q280 100 275 115"/>
  <path d="M260 110 Q275 115 270 130"/>
  <path d="M255 125 Q270 130 265 145"/>
  
  <!-- Front legs -->
  <path d="M150 290 L140 350 Q140 365 155 365 L170 365 Q185 365 185 350 L175 290"/>
  <path d="M220 295 L210 350 Q210 365 225 365 L240 365 Q255 365 255 350 L245 295"/>
  
  <!-- Back legs -->
  <path d="M130 270 Q110 290 115 330 Q115 365 135 365 L145 365"/>
  <path d="M270 260 Q290 280 285 330 Q285 365 265 365 L255 365"/>
  
  <!-- Hooves -->
  <ellipse cx="160" cy="365" rx="18" ry="8"/>
  <ellipse cx="230" cy="365" rx="18" ry="8"/>
  <ellipse cx="140" cy="365" rx="15" ry="7"/>
  <ellipse cx="260" cy="365" rx="15" ry="7"/>
  
  <!-- Tail -->
  <path d="M100 240 Q60 230 50 260 Q45 290 70 310 Q90 325 80 350"/>
  <path d="M100 250 Q70 245 60 270 Q55 295 75 315 Q90 330 85 355"/>
  <path d="M105 260 Q80 260 70 285 Q65 305 85 325 Q100 340 95 360"/>
  
  <!-- Stars around unicorn -->
  <path d="M50 100 L53 110 L63 110 L55 117 L58 127 L50 120 L42 127 L45 117 L37 110 L47 110 Z"/>
  <path d="M340 80 L342 87 L349 87 L343 92 L345 99 L340 94 L335 99 L337 92 L331 87 L338 87 Z"/>
  <path d="M320 180 L322 187 L329 187 L323 192 L325 199 L320 194 L315 199 L317 192 L311 187 L318 187 Z"/>
  
  <!-- Rainbow -->
  <path d="M30 50 Q100 20 170 50"/>
  <path d="M35 60 Q100 32 165 60"/>
  <path d="M40 70 Q100 45 160 70"/>
  
  <!-- Sparkles -->
  <circle cx="180" cy="150" r="4"/>
  <circle cx="300" cy="130" r="3"/>
  <circle cx="80" cy="180" r="3"/>
  <circle cx="350" cy="250" r="4"/>
</svg>

