<svg xmlns="http://www.w3.org/2000/svg" viewBox="0 0 400 400" fill="none" stroke="#000" stroke-width="3" stroke-linecap="round" stroke-linejoin="round">
  <ellipse cx="200" cy="260" rx="80" ry="120"/>
  <path d="M200 140 Q150 100 140 50"/>
  <path d="M200 140 Q200 80 200 30"/>
  <path d="M200 140 Q250 100 260 50"/>
  <path d="M200 140 Q130 110 100 70"/>
  <path d="M200 140 Q270 110 300 70"/>
  <path d="M140 200 L180 180 L220 200 L260 180"/>
  <path d="M130 250 L170 230 L210 250 L250 230 L270 250"/>
  <path d="M140 300 L180 280 L220 300 L260 280"/>
  <path d="M160 350 L200 330 L240 350"/>
</svg>

