<svg xmlns="http://www.w3.org/2000/svg" viewBox="0 0 400 400" fill="none" stroke="#000" stroke-width="3" stroke-linecap="round" stroke-linejoin="round">
  <path d="M200 80 Q100 150 100 250 Q100 380 200 380 Q300 380 300 250 Q300 150 200 80"/>
  <path d="M150 80 Q200 50 250 80"/>
  <path d="M120 100 Q200 60 280 100"/>
  <ellipse cx="130" cy="80" rx="20" ry="30"/>
  <ellipse cx="200" cy="60" rx="15" ry="25"/>
  <ellipse cx="270" cy="80" rx="20" ry="30"/>
  <circle cx="150" cy="180" r="10"/>
  <circle cx="200" cy="160" r="10"/>
  <circle cx="250" cy="180" r="10"/>
  <circle cx="130" cy="250" r="10"/>
  <circle cx="180" cy="240" r="10"/>
  <circle cx="220" cy="240" r="10"/>
  <circle cx="270" cy="250" r="10"/>
  <circle cx="160" cy="310" r="10"/>
  <circle cx="200" cy="320" r="10"/>
  <circle cx="240" cy="310" r="10"/>
</svg>

