<svg xmlns="http://www.w3.org/2000/svg" viewBox="0 0 400 400" fill="none" stroke="#000" stroke-width="3" stroke-linecap="round" stroke-linejoin="round">
  <ellipse cx="200" cy="230" rx="120" ry="70"/>
  <path d="M80 230 Q40 200 60 160"/>
  <circle cx="70" cy="150" r="35"/>
  <circle cx="55" cy="145" r="10"/>
  <path d="M50 165 Q70 180 90 165"/>
  <path d="M320 230 Q380 240 390 280"/>
  <ellipse cx="390" cy="290" rx="30" ry="20"/>
  <ellipse cx="110" cy="290" rx="25" ry="40"/>
  <ellipse cx="170" cy="290" rx="25" ry="40"/>
  <ellipse cx="240" cy="290" rx="25" ry="40"/>
  <ellipse cx="300" cy="290" rx="25" ry="40"/>
  <path d="M120 170 L120 150 M160 160 L160 140 M200 160 L200 140 M240 160 L240 140 M280 170 L280 150"/>
  <circle cx="120" cy="145" r="8"/>
  <circle cx="160" cy="135" r="8"/>
  <circle cx="200" cy="135" r="8"/>
  <circle cx="240" cy="135" r="8"/>
  <circle cx="280" cy="145" r="8"/>
</svg>

