<svg xmlns="http://www.w3.org/2000/svg" viewBox="0 0 400 400" fill="none" stroke="#000" stroke-width="3" stroke-linecap="round" stroke-linejoin="round">
  <ellipse cx="200" cy="200" rx="50" ry="40"/>
  <path d="M150 200 Q50 150 30 200 Q50 250 150 200"/>
  <path d="M250 200 Q350 150 370 200 Q350 250 250 200"/>
  <path d="M200 160 Q200 100 250 80"/>
  <circle cx="260" cy="80" r="30"/>
  <path d="M290 80 L330 70 L320 90"/>
  <circle cx="270" cy="75" r="8"/>
  <path d="M180 240 L170 300"/>
  <path d="M220 240 L230 300"/>
  <path d="M50 180 L30 200 L50 220"/>
  <path d="M350 180 L370 200 L350 220"/>
</svg>

