<svg xmlns="http://www.w3.org/2000/svg" viewBox="0 0 400 400" fill="none" stroke="#000" stroke-width="2.5" stroke-linecap="round" stroke-linejoin="round">
  <!-- T-Rex dinosaur - professional coloring page -->
  
  <!-- Head -->
  <path d="M280 80 Q320 70 350 90 Q380 110 380 140 Q380 170 350 180 L280 180 Q260 180 250 160 Q240 140 250 120 Q260 100 280 80"/>
  
  <!-- Jaw -->
  <path d="M280 180 Q300 185 320 180 Q340 185 355 175"/>
  <path d="M285 180 L285 200 Q320 210 355 195 L355 175"/>
  
  <!-- Teeth - upper -->
  <path d="M290 170 L293 180 L296 170"/>
  <path d="M305 172 L308 182 L311 172"/>
  <path d="M320 173 L323 183 L326 173"/>
  <path d="M335 172 L338 182 L341 172"/>
  <path d="M350 170 L353 180 L356 170"/>
  
  <!-- Teeth - lower -->
  <path d="M295 185 L298 195 L301 185"/>
  <path d="M310 187 L313 197 L316 187"/>
  <path d="M325 187 L328 197 L331 187"/>
  <path d="M340 185 L343 195 L346 185"/>
  
  <!-- Eye -->
  <circle cx="300" cy="115" r="18"/>
  <circle cx="305" cy="115" r="10"/>
  <circle cx="308" cy="112" r="4"/>
  
  <!-- Eye ridge -->
  <path d="M280 100 Q300 90 320 100"/>
  
  <!-- Nostril -->
  <ellipse cx="365" cy="110" rx="6" ry="8"/>
  
  <!-- Neck -->
  <path d="M250 160 Q220 180 200 220 Q190 250 180 280"/>
  <path d="M280 180 Q260 200 250 240 Q245 270 240 300"/>
  
  <!-- Body -->
  <ellipse cx="180" cy="280" rx="80" ry="60"/>
  
  <!-- Back spines -->
  <path d="M120 235 L130 220 L140 235"/>
  <path d="M145 230 L155 212 L165 230"/>
  <path d="M170 228 L182 208 L194 228"/>
  <path d="M200 232 L215 215 L230 232"/>
  
  <!-- Small arms -->
  <path d="M230 260 Q250 270 260 290 Q265 300 255 310"/>
  <path d="M255 310 L260 320 L265 312 L270 322"/>
  
  <!-- Left leg (front) -->
  <path d="M150 320 L140 360 Q140 380 160 380 L180 380 Q195 380 195 360 L185 320"/>
  <!-- Toes -->
  <path d="M155 375 L150 390"/>
  <path d="M170 378 L170 395"/>
  <path d="M185 375 L190 390"/>
  
  <!-- Right leg (back) -->
  <path d="M200 310 L210 355 Q215 375 235 375 L250 375 Q265 375 260 355 L240 310"/>
  <!-- Toes -->
  <path d="M225 370 L220 385"/>
  <line x1="240" y1="372" x2="240" y2="390"/>
  <path d="M255 370 L260 385"/>
  
  <!-- Tail -->
  <path d="M100 280 Q60 290 40 320 Q30 350 50 370 Q70 380 90 365"/>
  <path d="M100 290 Q70 300 55 325 Q50 350 65 365"/>
  
  <!-- Tail spines -->
  <path d="M85 295 L90 280 L95 295"/>
  <path d="M65 310 L70 295 L75 310"/>
  <path d="M50 330 L55 315 L60 330"/>
  
  <!-- Belly texture -->
  <path d="M130 290 Q150 300 170 290"/>
  <path d="M140 310 Q160 320 180 310"/>
  
  <!-- Ground -->
  <path d="M20 390 Q100 395 200 390 Q300 385 380 390"/>
</svg>
